<svg xmlns="http://www.w3.org/2000/svg" xmlns:xlink="http://www.w3.org/1999/xlink" viewBox="0 0 338.56 237.12"><defs><style>.cls-1{isolation:isolate;}.cls-2{fill:url(#linear-gradient);}.cls-3{fill:url(#linear-gradient-2);}.cls-4{fill:url(#linear-gradient-3);}.cls-5{fill:#fff;}.cls-6{fill:url(#linear-gradient-4);}.cls-7{fill:url(#linear-gradient-5);}.cls-8{fill:url(#linear-gradient-6);}.cls-9{fill:#f3951b;}.cls-10{fill:#e85697;}.cls-11{fill:#e7417a;}.cls-12,.cls-17,.cls-19,.cls-27,.cls-31{fill:none;stroke:#757576;stroke-miterlimit:10;}.cls-12{stroke-width:0.23px;}.cls-13{fill:#f49a1b;}.cls-14{fill:#f08813;}.cls-15{fill:#f5a532;}.cls-16,.cls-24{fill:#fafafa;}.cls-16{opacity:0.28;}.cls-17{stroke-width:0.39px;}.cls-18{fill:#ec81b1;}.cls-19{stroke-width:0.32px;}.cls-20{fill:url(#linear-gradient-7);}.cls-21{fill:url(#linear-gradient-8);}.cls-22{fill:url(#linear-gradient-9);}.cls-23{fill:#84cef4;}.cls-24{mix-blend-mode:overlay;}.cls-25{fill:url(#linear-gradient-10);}.cls-26{fill:#fabe0f;}.cls-27{stroke-width:0.27px;}.cls-28{fill:#752b84;}.cls-29{fill:#813d8f;}.cls-30{fill:#894d96;}.cls-31{stroke-width:0.39px;}.cls-32{fill:#accd74;}.cls-33{fill:#9cbc5c;}.cls-34{fill:#bcd481;}.cls-35{fill:url(#linear-gradient-11);}.cls-36{fill:#819857;}</style><linearGradient id="linear-gradient" x1="118.45" y1="110.68" x2="176.18" y2="110.68" gradientUnits="userSpaceOnUse"><stop offset="0" stop-color="#1f2d52"/><stop offset="0.1" stop-color="#253662"/><stop offset="0.34" stop-color="#324880"/><stop offset="0.57" stop-color="#3b5596"/><stop offset="0.8" stop-color="#405ca4"/><stop offset="1" stop-color="#425fa8"/></linearGradient><linearGradient id="linear-gradient-2" x1="172.39" y1="114.21" x2="224.58" y2="114.21" gradientUnits="userSpaceOnUse"><stop offset="0" stop-color="#f3981c"/><stop offset="0.11" stop-color="#f5a117"/><stop offset="0.42" stop-color="#f9b70c"/><stop offset="0.72" stop-color="#fbc405"/><stop offset="1" stop-color="#fcc803"/></linearGradient><linearGradient id="linear-gradient-3" x1="237.43" y1="198.07" x2="262.08" y2="198.07" xlink:href="#linear-gradient"/><linearGradient id="linear-gradient-4" x1="206.85" y1="127.3" x2="338.56" y2="127.3" gradientUnits="userSpaceOnUse"><stop offset="0" stop-color="#3068b0"/><stop offset="0.01" stop-color="#3069b1"/><stop offset="0.45" stop-color="#3693d0"/><stop offset="0.8" stop-color="#3aade3"/><stop offset="1" stop-color="#3bb7ea"/></linearGradient><linearGradient id="linear-gradient-5" x1="256.61" y1="215.63" x2="281.5" y2="215.63" xlink:href="#linear-gradient"/><linearGradient id="linear-gradient-6" x1="37.87" y1="46.35" x2="42.85" y2="46.35" xlink:href="#linear-gradient-4"/><linearGradient id="linear-gradient-7" x1="65.14" y1="92.16" x2="67.18" y2="92.16" xlink:href="#linear-gradient-4"/><linearGradient id="linear-gradient-8" x1="36.44" y1="80.74" x2="66.63" y2="80.74" xlink:href="#linear-gradient-4"/><linearGradient id="linear-gradient-9" x1="37.1" y1="82.43" x2="65.82" y2="82.43" xlink:href="#linear-gradient-4"/><linearGradient id="linear-gradient-10" x1="191.33" y1="88.8" x2="203.7" y2="88.8" xlink:href="#linear-gradient-2"/><linearGradient id="linear-gradient-11" x1="62.01" y1="110.68" x2="113.76" y2="110.68" gradientUnits="userSpaceOnUse"><stop offset="0" stop-color="#911d70"/><stop offset="0.39" stop-color="#aa3b86"/><stop offset="0.76" stop-color="#bc5096"/><stop offset="1" stop-color="#c3589c"/></linearGradient></defs><title>Untitled-5</title><g class="cls-1"><g id="Layer_1" data-name="Layer 1"><path class="cls-2" d="M169.63,123.63a5.29,5.29,0,0,1-3.56-1.15,4.69,4.69,0,0,1-1.35-3.77V94.05a5.25,5.25,0,0,0-5.24-5.25h0a5.24,5.24,0,0,0-5.24,5.25v21.47a16.53,16.53,0,0,1-.21,2.62,7.37,7.37,0,0,1-.82,2.42,6,6,0,0,1-1.72,1.92,6.2,6.2,0,0,1-2.9,1.07c-.55-2-1.31-4.56-2.3-7.79s-2.11-6.59-3.4-10.11-2.7-6.93-4.25-10.24c-.72-1.51-3.63-3.56-5.87-5a6,6,0,0,0-5.49-.48h0a14.8,14.8,0,0,0-2.09,1,81.63,81.63,0,0,1,5.08,9c1.48,3.06,2.74,6,3.81,8.89s1.95,5.56,2.66,8.1,1.28,4.77,1.72,6.68H121.31l-2.86,8.92h28.74a22.78,22.78,0,0,0,9.13-1.51,13.75,13.75,0,0,0,5.29-3.89,10,10,0,0,0,4.17,3.93,14.25,14.25,0,0,0,6.72,1.47h3.68v-8.92Z"/><path class="cls-3" d="M173.73,132.55c-1.57-2.49-2-5.34,0-8.92h11.71A11.4,11.4,0,0,1,181.1,119a13.16,13.16,0,0,1-1.64-6.39,18.26,18.26,0,0,1,1.31-7.12,14.41,14.41,0,0,1,3.68-5.24A16.58,16.58,0,0,1,190.19,97a23.06,23.06,0,0,1,7.45-1.15q8.52,0,13.35,4.39t4.83,12.4a14.23,14.23,0,0,1-1.51,6.39,10.7,10.7,0,0,1-4.22,4.59h14.49v8.92H173.73ZM197.56,104a12.42,12.42,0,0,0-4.71.74,7.48,7.48,0,0,0-2.7,1.76,4.92,4.92,0,0,0-1.23,2.25,10,10,0,0,0-.29,2.21,14.77,14.77,0,0,0,.33,2.87,11,11,0,0,0,1.27,3.28,11.41,11.41,0,0,0,2.7,3.07,13,13,0,0,0,4.63,2.25,12.5,12.5,0,0,0,4.67-2.17,11.62,11.62,0,0,0,2.78-3.07,10.17,10.17,0,0,0,1.31-3.32,15.4,15.4,0,0,0,.33-2.91,11,11,0,0,0-.25-2.21,4.58,4.58,0,0,0-1.19-2.25,7.5,7.5,0,0,0-2.74-1.76A13.31,13.31,0,0,0,197.56,104Z"/><path class="cls-4" d="M262,195.23a4.25,4.25,0,0,1-2.41,4.34c-.4,0-.82,0-1.25,0a31.12,31.12,0,0,0-6.71,1,45.17,45.17,0,0,0-5,1.61l1,0a17.47,17.47,0,0,1-4.83-.43c-1.34-.27-3-.48-4.38-.89a8.35,8.35,0,0,1-1-.35l.13-.09.06,0a40,40,0,0,1,13.51-5.69C254.57,194,260,193.27,262,195.23Z"/><path class="cls-5" d="M245.2,207.34c-.27,0-.53-.08-.8-.12l.43.06Z"/><path class="cls-5" d="M252.72,207.66a33.39,33.39,0,0,1-6.5-.19A47.29,47.29,0,0,0,252.72,207.66Z"/><path class="cls-6" d="M331.94,65.13A82.91,82.91,0,0,1,317,64.21c-1.25-.18-2.46-.4-3.71-.65s-2.51-.51-3.76-.79q-3.78-.85-7.54-1.88c-2.51-.68-5-1.43-7.53-2.2s-5-1.62-7.55-2.45q-7.52-2.52-14.79-5.39A67.59,67.59,0,0,0,263.56,48a40.39,40.39,0,0,0-4.75-.89c-.84-.11-1.69-.19-2.58-.23-.44,0-.9,0-1.35,0l-.63,0h-.6a45.47,45.47,0,0,0-9.38,1.37,46.77,46.77,0,0,0-4.48,1.37c-1.42.51-2.83,1.07-4.22,1.67a64.15,64.15,0,0,0-8,4.25,69.12,69.12,0,0,0-7.27,5.25q-1.74,1.43-3.37,3c-1.08,1-2.12,2.06-3.14,3.15a63.57,63.57,0,0,0-5.73,7h0a6.78,6.78,0,0,0,1.13,9c5,4.3,10,8.55,14.93,12.82l5.4,4.63,4.28-5.58a31.9,31.9,0,0,1,4.68-4.94,27.43,27.43,0,0,1,2.65-2c.47-.31.93-.58,1.41-.85.24-.14.48-.26.73-.39l.78-.4a28,28,0,0,1,6.19-2.25c.48-.1.95-.17,1.41-.23s.81-.06,1.5-.08c1.22,0,2.42,0,3.61.07s2.36.2,3.5.39l.85.14.89.18,1.86.41c1.23.29,2.44.6,3.64,1l.26.08c-3.65,1.68-7.22,3.52-10.69,5.55a118.65,118.65,0,0,0-14.3,9.86,99.17,99.17,0,0,0-12.6,12.08,87.59,87.59,0,0,0-10.13,14.3A75,75,0,0,0,213.24,144a68.63,68.63,0,0,0-2.73,17.35,55.9,55.9,0,0,0,2.14,17.54,37.4,37.4,0,0,0,3.63,8.28,35.41,35.41,0,0,0,2.54,3.73c.9,1.16,1.84,2.3,2.85,3.37a44.06,44.06,0,0,0,6,5.43,24.5,24.5,0,0,0,5.77,4.09s0,0,0,0a1.35,1.35,0,0,1,.45.22A10.53,10.53,0,0,0,236,205c.71.29,1.44.57,2.21.81l.9.29c.84.25,1.71.47,2.6.67l.35.08.77.15c.42.09.86.16,1.29.23l.27,0,.43.06.37.06.35,0,.67.08a47.29,47.29,0,0,0,6.5.19,1.37,1.37,0,0,0,.29,0h0a19.56,19.56,0,0,0,7.79-2.22c5.05-2.78,3.29-6.72,1.64-9.61a2.74,2.74,0,0,0-.45-.58,4.25,4.25,0,0,1-2.41,4.34h.11a21.22,21.22,0,0,1-2.88,1.42,22,22,0,0,1-8.19,1.19l-1,0a17.47,17.47,0,0,1-4.83-.43c-1.34-.27-3-.48-4.38-.89a8.35,8.35,0,0,1-1-.35l.13-.09.06,0a43.2,43.2,0,0,1-11.53-10c-.82-1-1.57-2-2.29-3.11a28.21,28.21,0,0,1-1.9-3.24,32.57,32.57,0,0,1-2.53-7,48.57,48.57,0,0,1-.9-15.26,61.78,61.78,0,0,1,3.22-15.11,64.45,64.45,0,0,1,3-7.15,71,71,0,0,1,3.74-6.78,77.9,77.9,0,0,1,9.52-12.24,91,91,0,0,1,11.66-10.34,113.89,113.89,0,0,1,27.54-15c1.22-.47,2.46-.92,3.71-1.36l.23-.08.12,0,.21-.08a8,8,0,0,0,1.65-.84,8.32,8.32,0,0,0,3.77-6.41,8.38,8.38,0,0,0-.52-3.66,8.59,8.59,0,0,0-2.12-3.18c-.24-.23-.49-.41-.74-.61a5.81,5.81,0,0,0-.76-.5l-.73-.4-.14-.06-.06,0-.15-.07-1.08-.47-1-.44c-1.34-.55-2.69-1.08-4-1.59l-2-.76q-1.08-.37-2.16-.72c-1.44-.46-2.88-.87-4.33-1.24-.72-.19-1.44-.36-2.17-.53l-1.13-.25-1.19-.23c-1.57-.28-3.14-.47-4.71-.61s-3.11-.18-4.65-.19c-.69,0-1.72,0-2.63.1a25.8,25.8,0,0,0-2.68.37,38.41,38.41,0,0,0-9.39,3.17l-1.07.51-1.11.58c-.73.4-1.45.82-2.15,1.26a42.87,42.87,0,0,0-4,2.9c-.67.56-1.33,1.13-2,1.73l-5-4.38c.22-.25.45-.5.68-.74.83-.87,1.69-1.73,2.57-2.55s1.77-1.61,2.7-2.37a53.37,53.37,0,0,1,5.84-4.17,50.93,50.93,0,0,1,6.28-3.32c1.08-.48,2.18-.92,3.29-1.32s2.15-.73,3.24-1a31.92,31.92,0,0,1,6.57-1h1.46c.46,0,.95.06,1.45.12a28.76,28.76,0,0,1,3.18.59,54.84,54.84,0,0,1,6.8,2.22c5.16,2.05,10.4,3.83,15.61,5.52,2.62.83,5.21,1.64,7.86,2.43s5.31,1.54,8,2.24S304,75,306.75,75.6c1.38.29,2.76.55,4.16.79s2.84.48,4.27.67a97.71,97.71,0,0,0,10.81.8l.12,7.2.15,7.5c-2.1,0-4.19.09-6.29.23a105.82,105.82,0,0,0-12.64,1.64A109.12,109.12,0,0,0,283.18,102a110.58,110.58,0,0,0-21.72,12.72,80.42,80.42,0,0,0-17.76,18.08,57.05,57.05,0,0,0-6.17,11.31,37,37,0,0,0-2.8,12.88,32.87,32.87,0,0,0,.51,6.64,25.94,25.94,0,0,0,2,6.42,25,25,0,0,0,3.67,5.62,29.65,29.65,0,0,0,4.79,4.46,39.59,39.59,0,0,0,11.32,5.68,58,58,0,0,0,7.13,1.87c2.63.78,5.24,1.57,7.7,2.53a21.28,21.28,0,0,1,6.14,3.66l.26.24a9.76,9.76,0,0,1,.71.73,8.73,8.73,0,0,1,.8,1,15.93,15.93,0,0,0,.46-1.7,15,15,0,0,0-1.3-2.63c0-.09-.1-.18-.16-.27l-.09-.12a3.28,3.28,0,0,0-.2-.31c-.22-.3-.45-.61-.7-.91l-.28-.33-.34-.37L277,189l-.29-.27-.29-.27-.29-.26c-.24-.21-.49-.4-.76-.6l-.23-.18-.25-.17-.21-.15-.25-.17-.36-.22-.39-.24c-3.88-2.26-9.05-3.43-13.77-4.86a92,92,0,0,1-8.76-3,29.22,29.22,0,0,1-2.54-2,24.57,24.57,0,0,1-3.74-4,19.09,19.09,0,0,1-2.57-4.67A21.61,21.61,0,0,1,241,162.7a27,27,0,0,1,0-5.39,31.18,31.18,0,0,1,3-10.43,49.6,49.6,0,0,1,6-9.5c1.17-1.48,2.42-2.92,3.71-4.29s2.66-2.71,4.07-4a82.54,82.54,0,0,1,9-7,106.2,106.2,0,0,1,20.39-10.7,103.82,103.82,0,0,1,22.1-5.94,93.37,93.37,0,0,1,11.33-1,103.51,103.51,0,0,1,11.41.22l6.26.46.05-6.45L338.43,85l.09-13.59,0-6.47ZM277,82.12c.11,0,0,0,0,0l-.13,0-.11,0A2.18,2.18,0,0,1,277,82.12Z"/><path class="cls-5" d="M237.87,200.52l-.25-.15-.06,0-.13.09a8.35,8.35,0,0,0,1,.35Zm14.85,7.14h.1l.19,0A1.37,1.37,0,0,1,252.72,207.66Z"/><path class="cls-7" d="M281,196.43a13.11,13.11,0,0,1-2.29,11.79c-5.07,7-14.36,12.91-18.28,20.19a16.58,16.58,0,0,0-2,5.88,11.67,11.67,0,0,0,0,2.83,5.77,5.77,0,0,1-1.34-1.62h0c-1.13-5.33-.22-11,4.52-16.56,5.79-6.8,16.08-13.45,17.92-21.08a8.2,8.2,0,0,0,.33-2h0a15.93,15.93,0,0,0,.46-1.7A19.06,19.06,0,0,1,281,196.43Z"/><path class="cls-8" d="M38.87,49.07l-.21-1.2-.79.41a7.34,7.34,0,0,1,4.32-4.65l.66,1.16S40.61,44.52,38.87,49.07Z"/><path class="cls-9" d="M36.06,7.49l1.34.67s4.76-2.23,6.13-5.86L41,0S41.38,3.7,36.06,7.49Z"/><path class="cls-10" d="M148.32,78.27l1.25-2.3a8,8,0,0,0-5.9-5.22l.79,1.2-1.42.56S148.2,74.42,148.32,78.27Z"/><path class="cls-11" d="M5.35,115.15l.09-2.5s-7.25.62-4.88,5.91C.56,118.56,1.66,116.48,5.35,115.15Z"/><path class="cls-10" d="M7,119.3S.38,120.76.09,116.38c0,0-1.45,6,7.25,5.21Z"/><path class="cls-11" d="M7.34,121.59s-4.24,1.68-5.22,4.07c0,0-1.85-2.22,1.3-4.26A21.66,21.66,0,0,1,7,119.3Z"/><path class="cls-10" d="M4.37,131.09s1.88-2.94-.14-4.83-2-3.53-1.35-4.47c0,0-3,1.64-.07,4.78,2,2.18-1,5-1,5Z"/><path class="cls-12" d="M82.1,75s-3.18,3.3-2.9,7.61c.25,3.78-3,9.62-6.93,9.65"/><path class="cls-13" d="M81,75.41A.85.85,0,0,1,82.1,75a.83.83,0,0,1,.37,1.12c-.21.42-.36-.12-.77-.32S80.76,75.83,81,75.41Z"/><path class="cls-13" d="M96.51,66.32C93.62,72.05,86.63,77,82.19,74.85s-4.65-10.7-1.77-16.43,7.77-6.51,12.21-4.33S99.39,60.59,96.51,66.32Z"/><path class="cls-14" d="M92.1,54.2a9.37,9.37,0,0,0-.86-.38c3.89,2.28,5.79,6.33,3.17,11.54s-8.83,9.73-13.25,8.51a5.1,5.1,0,0,0,.8.5c4.44,2.18,11.34-2.61,14.14-8.18S96.55,56.38,92.1,54.2Z"/><path class="cls-15" d="M83.08,75.37c-.16.3-.7.35-1.21.1s-.79-.7-.64-1,.51,0,1,.27S83.23,75.06,83.08,75.37Z"/><path class="cls-16" d="M87.28,58.08c-1.22,1.2-2.91,1.48-3.78.63s-.58-2.53.63-3.73,2.91-1.49,3.78-.63S88.49,56.88,87.28,58.08Z"/><path class="cls-17" d="M68.89,71.27s-.55,6.43,6.58,10.08,6.5,9.05,4,13.39"/><path class="cls-10" d="M70.38,72.35a1.45,1.45,0,0,0-1.77-1,1.43,1.43,0,0,0-1,1.78c.22.77.64-.09,1.4-.3S70.6,73.12,70.38,72.35Z"/><path class="cls-10" d="M47.17,52.09c3,10.57,13.16,21.18,21.35,18.92s11.32-16.54,8.33-27.12-11-13.43-19.16-11.17S44.18,41.51,47.17,52.09Z"/><path class="cls-11" d="M58.54,33.08c.52-.15,1.05-.27,1.58-.38C52.81,35.32,48.3,41.53,51,51.14s11.7,19.21,19.56,18.55a8.31,8.31,0,0,1-1.53.58c-8.19,2.27-18.25-8-21.16-18.26S50.34,35.34,58.54,33.08Z"/><path class="cls-18" d="M66.85,71.6c.16.57,1.05.82,2,.56s1.58-.93,1.42-1.5-.86-.13-1.8.13S66.69,71,66.85,71.6Z"/><path class="cls-16" d="M65.41,41.15c1.66,2.41,4.41,3.42,6.15,2.25s1.81-4.07.15-6.49-4.41-3.42-6.15-2.25S63.75,38.73,65.41,41.15Z"/><path class="cls-19" d="M65.37,91.52s6,2.13,8.34,7.64c2.05,4.8,9.76,10,14.58,7.68"/><path class="cls-20" d="M67,91.32a1.18,1.18,0,0,0-1.64.2,1.15,1.15,0,0,0,.25,1.61c.52.39.37-.36.75-.86S67.53,91.71,67,91.32Z"/><path class="cls-21" d="M42.14,89.56c7.14,5.32,18.89,7.2,23,1.8s-.94-16-8.08-21.37S43.42,66.69,39.3,72.1,35,84.24,42.14,89.56Z"/><path class="cls-22" d="M40,71.92c.27-.35.55-.69.83-1-3.38,5.2-3.19,11.35,3.3,16.19s17,6.64,21.68,2.43a6.73,6.73,0,0,1-.69,1.1C61,96,49.5,94.33,42.56,89.16S35.89,77.32,40,71.92Z"/><path class="cls-23" d="M64.38,92.55c.38.28,1.08,0,1.55-.61s.55-1.36.16-1.64-.61.33-1.09,1S64,92.26,64.38,92.55Z"/><path class="cls-16" d="M48.4,73.76c2.25.74,4.51.06,5.05-1.53s-.86-3.48-3.11-4.22-4.52-.06-5.06,1.53S46.14,73,48.4,73.76Z"/><ellipse class="cls-24" cx="65.19" cy="91.39" rx="1.41" ry="1.4"/><ellipse class="cls-24" cx="58.86" cy="59.41" rx="0.71" ry="0.7"/><ellipse class="cls-24" cx="90.2" cy="29.15" rx="0.71" ry="0.7"/><path class="cls-24" d="M40.52,86.54a.48.48,0,1,1-.47-.47A.47.47,0,0,1,40.52,86.54Z"/><path class="cls-24" d="M44.77,142.93a.48.48,0,0,1-.48.47.47.47,0,0,1,0-.94A.48.48,0,0,1,44.77,142.93Z"/><path class="cls-24" d="M82.48,152.15a.48.48,0,1,1-.47-.47A.47.47,0,0,1,82.48,152.15Z"/><path class="cls-24" d="M63.32,145.87a.48.48,0,1,1-.48-.47A.48.48,0,0,1,63.32,145.87Z"/><ellipse class="cls-24" cx="100.95" cy="162.81" rx="0.48" ry="0.47"/><ellipse class="cls-24" cx="53.87" cy="151.6" rx="0.48" ry="0.47"/><path class="cls-24" d="M56.57,97.88a.71.71,0,0,1-.71.7.7.7,0,1,1,.71-.7Z"/><ellipse class="cls-24" cx="65.19" cy="119.27" rx="0.71" ry="0.7"/><path class="cls-24" d="M50.07,36.14a.7.7,0,0,1-.7.7.7.7,0,1,1,.7-.7Z"/><path class="cls-24" d="M70.49,35.81a.71.71,0,1,1-.71-.7A.71.71,0,0,1,70.49,35.81Z"/><path class="cls-24" d="M83.42,54.75a.71.71,0,0,1-.71.7.7.7,0,1,1,.71-.7Z"/><path class="cls-24" d="M36.39,74a.7.7,0,0,1-.7.7.7.7,0,1,1,0-1.39A.69.69,0,0,1,36.39,74Z"/><path class="cls-25" d="M191.33,88.93a6.3,6.3,0,0,1,6.31-6.31,5.76,5.76,0,0,1,4.3,1.84,6.25,6.25,0,0,1,1.76,4.47A6,6,0,0,1,197.64,95a6.21,6.21,0,0,1-4.46-1.76A5.74,5.74,0,0,1,191.33,88.93Z"/><path class="cls-9" d="M171.51,28.18l.07.57a5.07,5.07,0,0,0,3.17.68l.19-1.28S173.85,29.05,171.51,28.18Z"/><path class="cls-10" d="M105.07,75l-2,1.66a8,8,0,0,0,3.5,7.06l-.28-1.41h1.52S103.73,78.63,105.07,75Z"/><path class="cls-11" d="M105.68,36.48l-.13-3.92s11.25,1,7.57,9.29C113.12,41.85,111.41,38.57,105.68,36.48Z"/><path class="cls-10" d="M103.2,43s10.19,2.29,10.64-4.59c0,0,2.26,9.46-11.25,8.19Z"/><path class="cls-11" d="M102.59,46.61s6.58,2.64,8.1,6.39c0,0,2.88-3.5-2-6.69S103.2,43,103.2,43Z"/><path class="cls-10" d="M107.21,61.53s-2.92-4.62.21-7.59,3.11-5.55,2.1-7c0,0,4.65,2.57.11,7.51-3.14,3.41,1.5,7.77,1.5,7.77Z"/><path class="cls-9" d="M173.54,103.47l-.11,2.2s-6.26-1.06-3.81-5.55C169.62,100.12,170.43,102,173.54,103.47Z"/><path class="cls-26" d="M175.24,99.92s-5.61-1.75-6.18,2.08c0,0-.83-5.4,6.68-4.06Z"/><path class="cls-9" d="M175.74,97.94s-3.56-1.79-4.24-4c0,0-1.78,1.83.81,3.84a18.63,18.63,0,0,0,2.93,2.1Z"/><path class="cls-26" d="M173.85,89.36s1.42,2.72-.47,4.25-2.55,2.32-2,3.19c0,0-1.94-1,.83-3.57,1.92-1.77-.48-4.43-.48-4.43Z"/><path class="cls-27" d="M158.53,57.55s2.1,5,0,9.69c-1.86,4.08-.72,12,3.54,13.62"/><path class="cls-28" d="M159.6,58.46a1,1,0,1,0-1.94.19c.05.56.44,0,1,0S159.66,59,159.6,58.46Z"/><path class="cls-29" d="M146.39,41.85c.74,7.58,6.32,16,12.12,15.48s9.64-9.95,8.9-17.53-5.78-10.49-11.58-9.92S145.65,34.27,146.39,41.85Z"/><path class="cls-28" d="M156.36,30.22l1.11-.06c-5.25.91-9,4.62-8.37,11.5s5.58,14.52,11,15a6,6,0,0,1-1.1.22c-5.8.56-11.36-7.65-12.07-15S150.55,30.79,156.36,30.22Z"/><path class="cls-30" d="M157.31,57.53c0,.41.61.69,1.28.62s1.18-.45,1.14-.86-.57-.19-1.24-.12S157.27,57.12,157.31,57.53Z"/><path class="cls-16" d="M160,36.55c.83,1.85,2.57,2.87,3.88,2.28s1.72-2.57.89-4.41-2.57-2.87-3.89-2.28S159.19,34.71,160,36.55Z"/><path class="cls-31" d="M170.42,73.86s-4.93,2.32-5.54,12.84c-.54,9.37-5.94,16.25-12.53,16"/><path class="cls-32" d="M167.87,74.28a1.42,1.42,0,1,1,2.47,1.38c-.39.7-.59-.24-1.27-.62S167.48,75,167.87,74.28Z"/><path class="cls-32" d="M195,59.91c-5.35,9.61-17.61,17.6-25,13.5s-7-18.73-1.67-28.34,13.69-10.55,21-6.45S200.3,50.3,195,59.91Z"/><path class="cls-33" d="M188.46,38.77c-.48-.27-1-.51-1.43-.73,6.41,4.23,9.3,11.33,4.44,20.06s-15.76,16-23.16,13.55a8,8,0,0,0,1.32.92c7.36,4.1,19.45-3.57,24.65-12.9S195.82,42.87,188.46,38.77Z"/><path class="cls-34" d="M171.45,74.37c-.29.52-1.21.56-2,.09s-1.3-1.28-1-1.79.85.07,1.7.54S171.74,73.86,171.45,74.37Z"/><path class="cls-16" d="M180,45c-2.16,2-5.05,2.31-6.45.77s-.79-4.38,1.37-6.35,5.05-2.32,6.45-.77S182.12,43.07,180,45Z"/><circle class="cls-24" cx="99.12" cy="43.54" r="1.76"/><path class="cls-24" d="M153.27,158a1.4,1.4,0,1,1-1.39-1.39A1.4,1.4,0,0,1,153.27,158Z"/><path class="cls-24" d="M113.12,60.25a.88.88,0,1,1-.88-.88A.88.88,0,0,1,113.12,60.25Z"/><path class="cls-24" d="M169.58,47.27a.7.7,0,0,1-1.4,0,.7.7,0,0,1,1.4,0Z"/><path class="cls-24" d="M90,35.05a.6.6,0,1,1-1.19,0,.6.6,0,0,1,1.19,0Z"/><path class="cls-24" d="M147.41,55.86a.47.47,0,1,1-.47-.47A.47.47,0,0,1,147.41,55.86Z"/><path class="cls-24" d="M117.24,37.47a.6.6,0,1,1-.6-.59A.6.6,0,0,1,117.24,37.47Z"/><path class="cls-24" d="M137.74,156.51a.47.47,0,1,1-.47-.47A.47.47,0,0,1,137.74,156.51Z"/><circle class="cls-24" cx="166.3" cy="152.6" r="0.47"/><path class="cls-24" d="M170.87,141.3a.47.47,0,1,1-.47-.47A.47.47,0,0,1,170.87,141.3Z"/><path class="cls-24" d="M184.08,40.16a.47.47,0,1,1-.47-.47A.47.47,0,0,1,184.08,40.16Z"/><path class="cls-24" d="M185.3,29.3a.47.47,0,1,1-.47-.47A.47.47,0,0,1,185.3,29.3Z"/><circle class="cls-24" cx="198.55" cy="39.44" r="0.47"/><circle class="cls-24" cx="177.91" cy="46.78" r="0.47"/><circle class="cls-24" cx="177.91" cy="60.35" r="0.47"/><path class="cls-24" d="M187.72,131.57a.47.47,0,0,1-.47.47.47.47,0,1,1,0-.94A.47.47,0,0,1,187.72,131.57Z"/><circle class="cls-24" cx="184.04" cy="53.74" r="0.47"/><path class="cls-24" d="M161.51,51.49A.49.49,0,0,1,161,52a.48.48,0,0,1-.47-.48A.47.47,0,0,1,161,51,.48.48,0,0,1,161.51,51.49Z"/><path class="cls-35" d="M75.32,132.32a27.75,27.75,0,0,1-5.24-.47,13.08,13.08,0,0,1-4.24-1.55A7.63,7.63,0,0,1,63,127.48a8.35,8.35,0,0,1-1-4.23,26.17,26.17,0,0,1,.71-6.49,24,24,0,0,1,1.68-4.67,22.18,22.18,0,0,1,2-3.39A28.41,28.41,0,0,0,68.26,106h6.52c-.8,1.29-1.57,2.66-2.28,4.09a32.57,32.57,0,0,0-1.78,4.27,17.66,17.66,0,0,0-.88,4,7,7,0,0,0,.47,3.4,4.93,4.93,0,0,0,2.22,2.35,9.2,9.2,0,0,0,4.4.87H105.7V105.5l8.06-2.55v29.37Zm3.56-38.11A5.16,5.16,0,0,1,84.06,89a4.68,4.68,0,0,1,3.52,1.51A5.09,5.09,0,0,1,89,94.21a5,5,0,0,1-5,5,5.09,5.09,0,0,1-3.67-1.45A4.72,4.72,0,0,1,78.88,94.21Zm13.31,0A5.16,5.16,0,0,1,97.36,89a4.68,4.68,0,0,1,3.53,1.51,5.13,5.13,0,0,1,1.45,3.66,5,5,0,0,1-5,5,5.09,5.09,0,0,1-3.66-1.45A4.68,4.68,0,0,1,92.19,94.21Z"/><path class="cls-36" d="M114.81,179h-6.49c0,7.71-3.78,12.18-10.21,12.18A12.74,12.74,0,0,1,93,190l0,0,1.54-3.88.05-.06a8.32,8.32,0,0,0,3.46.64c3.3,0,5.43-2.87,5.43-7.5V153.49h4.89v20.64h6.49Z"/><path class="cls-36" d="M132.36,174.13V179H114.54v-4.9h6.33V153.49h4.9v20.64ZM116,146a3.14,3.14,0,0,1,3.14-3.13A3.19,3.19,0,1,1,116,146Zm8.4,0a3.14,3.14,0,1,1,3.14,3.25A3.18,3.18,0,0,1,124.38,146Z"/><path class="cls-36" d="M158,169.29c0,7.77-2,9.74-9.36,9.74H132.1v-4.9h16.49c3.45,0,4.46-1,4.46-4.84a12.43,12.43,0,0,0-1.38-5.64c-1.06-2-3.4-4.84-11.22-4.84a17.47,17.47,0,0,0-4.47.27l-2.87-3.83,20.42-15.43,2.88,3.83-13.83,10.48a23.84,23.84,0,0,1,4.14.59c5.7,1.33,7.93,4.36,9.21,6.75A17,17,0,0,1,158,169.29Z"/><path class="cls-36" d="M172.31,141.31v3h-6.59a14.74,14.74,0,0,0-2.08.59l-1.65-2.4a17.45,17.45,0,0,1,2.24-.9,4.7,4.7,0,0,1-.16-1.22c0-3.09,1.86-5,4.89-5a8.26,8.26,0,0,1,3,.7L171,139a5.23,5.23,0,0,0-2.07-.69,1.9,1.9,0,0,0-2,2.08,3.49,3.49,0,0,0,.16.95Zm-6.81,5.53h4.9V179h-4.9Z"/><path class="cls-36" d="M199,154V178.6c0,7.82-4.89,12.34-13.19,12.34a18.55,18.55,0,0,1-9.63-2.5v-.11l2.34-3.83h.06a16.21,16.21,0,0,0,7.34,1.87c5,0,8.14-2.88,8.19-7.34h-5.27a12.77,12.77,0,0,1,0-25.54,12.77,12.77,0,0,1,6.76,2l.64-1.44Zm-10.16,20.11,5.27,0V160.2a7.54,7.54,0,0,0-5.27-2.24c-4.25,0-7.71,3.72-7.71,8.46A7.68,7.68,0,0,0,188.85,174.13Z"/><circle class="cls-36" cx="123.45" cy="138.7" r="2.7"/></g></g></svg>